<svg width="52" height="49" viewBox="0 0 52 49" fill="none" xmlns="http://www.w3.org/2000/svg">
<path d="M50.4864 22.5722C49.8158 17.9107 49.7082 16.2972 49.7452 15.783C49.8313 15.5877 50.0999 15.1815 50.2832 14.9067C50.8945 13.9906 51.6529 12.8516 51.6529 11.4455C51.6529 5.41771 43.6613 0 33.0914 0C24.3018 0 15.2299 3.16818 8.83695 6.75204C7.60481 7.36122 6.43454 8.08914 5.34263 8.92552C5.32948 8.93494 5.31598 8.94388 5.30217 8.95231C5.29959 8.95404 5.30045 8.95749 5.29873 8.96008C2.01705 11.5017 0 14.7278 0 17.6592C0 19.0652 0.758437 20.2043 1.37052 21.1203C1.55561 21.3977 1.82765 21.8082 1.9103 22.0018C1.94904 22.4711 1.84831 24.0664 1.16736 28.7876C1.12173 29.1099 1.08299 29.3709 1.05802 29.5515C-0.187672 38.7155 0.0352962 43.0893 1.88533 45.6949C3.47882 47.9366 6.01928 48.3955 9.34487 48.3955C10.5002 48.3955 11.8096 48.3411 13.1956 48.284C14.9329 48.2114 16.9 48.1302 19.0789 48.1302C21.2577 48.1302 23.2266 48.2114 24.9621 48.284C26.349 48.3419 27.6575 48.3955 28.8128 48.3955C29.4301 48.3955 30.0095 48.3722 30.5708 48.3316L30.5682 48.3411C30.7378 48.3411 30.9298 48.3203 31.1329 48.291C32.6412 48.1319 33.9291 47.7586 34.9776 47.0007C40.5665 44.5187 48.5709 39.3041 49.7684 37.6171C51.6193 35.0124 51.8431 32.501 50.5957 23.3379C50.5699 23.1573 50.5312 22.8945 50.4864 22.5722ZM35.5639 29.8497C37.5663 44.5593 35.7335 46.5323 28.8128 46.5323C26.2741 46.5323 23.0492 46.2661 19.0789 46.2661C15.1085 46.2661 11.8845 46.5323 9.34487 46.5323C2.42596 46.5323 0.593148 44.5576 2.59384 29.8497C2.77204 28.5525 3.65444 22.8669 3.42975 21.5801C3.23605 20.4748 1.55647 18.9996 1.55647 17.6592C1.55647 12.817 9.40169 6.21277 19.0789 6.21277C28.756 6.21277 36.6012 12.8179 36.6012 17.6592C36.6012 18.9996 34.9217 20.4748 34.728 21.5801C34.5024 22.8669 35.3865 28.5525 35.5639 29.8497Z" fill="#CEBEA5"/>
</svg>
